<svg width="175" height="50" viewBox="0 0 175 50" fill="none" xmlns="http://www.w3.org/2000/svg">
<path d="M4.66 9.28C3.31 9.28 2.2 8.89 1.33 8.11C0.49 7.3 0.0700002 6.31 0.0700002 5.14C0.0700002 3.94 0.49 2.95 1.33 2.17C2.2 1.36 3.31 0.954997 4.66 0.954997C5.98 0.954997 7.06 1.36 7.9 2.17C8.77 2.95 9.205 3.94 9.205 5.14C9.205 6.31 8.77 7.3 7.9 8.11C7.06 8.89 5.98 9.28 4.66 9.28ZM8.485 11.89V37H0.79V11.89H8.485ZM23.6015 11.53C25.3715 11.53 26.9165 11.89 28.2365 12.61C29.5865 13.33 30.6215 14.275 31.3415 15.445V11.89H39.0365V36.955C39.0365 39.265 38.5715 41.35 37.6415 43.21C36.7415 45.1 35.3465 46.6 33.4565 47.71C31.5965 48.82 29.2715 49.375 26.4815 49.375C22.7615 49.375 19.7465 48.49 17.4365 46.72C15.1265 44.98 13.8065 42.61 13.4765 39.61H21.0815C21.3215 40.57 21.8915 41.32 22.7915 41.86C23.6915 42.43 24.8015 42.715 26.1215 42.715C27.7115 42.715 28.9715 42.25 29.9015 41.32C30.8615 40.42 31.3415 38.965 31.3415 36.955V33.4C30.5915 34.57 29.5565 35.53 28.2365 36.28C26.9165 37 25.3715 37.36 23.6015 37.36C21.5315 37.36 19.6565 36.835 17.9765 35.785C16.2965 34.705 14.9615 33.19 13.9715 31.24C13.0115 29.26 12.5315 26.98 12.5315 24.4C12.5315 21.82 13.0115 19.555 13.9715 17.605C14.9615 15.655 16.2965 14.155 17.9765 13.105C19.6565 12.055 21.5315 11.53 23.6015 11.53ZM31.3415 24.445C31.3415 22.525 30.8015 21.01 29.7215 19.9C28.6715 18.79 27.3815 18.235 25.8515 18.235C24.3215 18.235 23.0165 18.79 21.9365 19.9C20.8865 20.98 20.3615 22.48 20.3615 24.4C20.3615 26.32 20.8865 27.85 21.9365 28.99C23.0165 30.1 24.3215 30.655 25.8515 30.655C27.3815 30.655 28.6715 30.1 29.7215 28.99C30.8015 27.88 31.3415 26.365 31.3415 24.445ZM48.2035 37.36C46.8535 37.36 45.7435 36.97 44.8735 36.19C44.0335 35.38 43.6135 34.39 43.6135 33.22C43.6135 32.02 44.0335 31.015 44.8735 30.205C45.7435 29.395 46.8535 28.99 48.2035 28.99C49.5235 28.99 50.6035 29.395 51.4435 30.205C52.3135 31.015 52.7485 32.02 52.7485 33.22C52.7485 34.39 52.3135 35.38 51.4435 36.19C50.6035 36.97 49.5235 37.36 48.2035 37.36ZM72.6037 11.62C75.5437 11.62 77.8837 12.58 79.6237 14.5C81.3937 16.39 82.2787 19 82.2787 22.33V37H74.6287V23.365C74.6287 21.685 74.1937 20.38 73.3237 19.45C72.4537 18.52 71.2837 18.055 69.8137 18.055C68.3437 18.055 67.1737 18.52 66.3037 19.45C65.4337 20.38 64.9987 21.685 64.9987 23.365V37H57.3037V11.89H64.9987V15.22C65.7787 14.11 66.8287 13.24 68.1487 12.61C69.4687 11.95 70.9537 11.62 72.6037 11.62ZM111.296 24.04C111.296 24.76 111.251 25.51 111.161 26.29H93.7459C93.8659 27.85 94.3609 29.05 95.2309 29.89C96.1309 30.7 97.2259 31.105 98.5159 31.105C100.436 31.105 101.771 30.295 102.521 28.675H110.711C110.291 30.325 109.526 31.81 108.416 33.13C107.336 34.45 105.971 35.485 104.321 36.235C102.671 36.985 100.826 37.36 98.7859 37.36C96.3259 37.36 94.1359 36.835 92.2159 35.785C90.2959 34.735 88.7959 33.235 87.7159 31.285C86.6359 29.335 86.0959 27.055 86.0959 24.445C86.0959 21.835 86.6209 19.555 87.6709 17.605C88.7509 15.655 90.2509 14.155 92.1709 13.105C94.0909 12.055 96.2959 11.53 98.7859 11.53C101.216 11.53 103.376 12.04 105.266 13.06C107.156 14.08 108.626 15.535 109.676 17.425C110.756 19.315 111.296 21.52 111.296 24.04ZM103.421 22.015C103.421 20.695 102.971 19.645 102.071 18.865C101.171 18.085 100.046 17.695 98.6959 17.695C97.4059 17.695 96.3109 18.07 95.4109 18.82C94.5409 19.57 94.0009 20.635 93.7909 22.015H103.421ZM151.4 11.89L144.605 37H136.1L132.14 20.71L128.045 37H119.585L112.745 11.89H120.44L123.995 29.845L128.225 11.89H136.37L140.645 29.755L144.155 11.89H151.4ZM164.55 37.36C162.36 37.36 160.41 36.985 158.7 36.235C156.99 35.485 155.64 34.465 154.65 33.175C153.66 31.855 153.105 30.385 152.985 28.765H160.59C160.68 29.635 161.085 30.34 161.805 30.88C162.525 31.42 163.41 31.69 164.46 31.69C165.42 31.69 166.155 31.51 166.665 31.15C167.205 30.76 167.475 30.265 167.475 29.665C167.475 28.945 167.1 28.42 166.35 28.09C165.6 27.73 164.385 27.34 162.705 26.92C160.905 26.5 159.405 26.065 158.205 25.615C157.005 25.135 155.97 24.4 155.1 23.41C154.23 22.39 153.795 21.025 153.795 19.315C153.795 17.875 154.185 16.57 154.965 15.4C155.775 14.2 156.945 13.255 158.475 12.565C160.035 11.875 161.88 11.53 164.01 11.53C167.16 11.53 169.635 12.31 171.435 13.87C173.265 15.43 174.315 17.5 174.585 20.08H167.475C167.355 19.21 166.965 18.52 166.305 18.01C165.675 17.5 164.835 17.245 163.785 17.245C162.885 17.245 162.195 17.425 161.715 17.785C161.235 18.115 160.995 18.58 160.995 19.18C160.995 19.9 161.37 20.44 162.12 20.8C162.9 21.16 164.1 21.52 165.72 21.88C167.58 22.36 169.095 22.84 170.265 23.32C171.435 23.77 172.455 24.52 173.325 25.57C174.225 26.59 174.69 27.97 174.72 29.71C174.72 31.18 174.3 32.5 173.46 33.67C172.65 34.81 171.465 35.71 169.905 36.37C168.375 37.03 166.59 37.36 164.55 37.36Z" fill="white"/>
</svg>
